<svg xmlns="http://www.w3.org/2000/svg" version="1.1" xmlns:xlink="http://www.w3.org/1999/xlink" xmlns:svgjs="http://svgjs.dev/svgjs" width="1500" height="1500" viewBox="0 0 1500 1500"><rect width="1500" height="1500" fill="#000000"></rect><g transform="matrix(0.6666666666666666,0,0,0.6666666666666666,249.50000000000006,249.50000000000006)"><svg viewBox="0 0 280 280" data-background-color="#ffffff" preserveAspectRatio="xMidYMid meet" height="1500" width="1500" xmlns="http://www.w3.org/2000/svg" xmlns:xlink="http://www.w3.org/1999/xlink"><g id="tight-bounds" transform="matrix(1,0,0,1,0.13999999999998636,0.13999999999998636)"><svg viewBox="0 0 279.72 279.72" height="279.72" width="279.72"><g><svg viewBox="0 0 279.72 279.72" height="279.72" width="279.72"><g><svg viewBox="0 0 279.72 279.72" height="279.72" width="279.72"><g id="textblocktransform"><svg viewBox="0 0 279.72 279.72" height="279.72" width="279.72" id="textblock"><g><svg viewBox="0 0 279.72 279.72" height="279.72" width="279.72"><g transform="matrix(1,0,0,1,57.446704652707865,57.446704652707865)"><svg viewBox="0 0 164.8265906945843 164.8265906945843" height="164.8265906945843" width="164.8265906945843"><g id="icon-0"><circle r="82" cx="82.41329534729215" cy="82.41329534729215" fill="#ffffff" data-fill-palette-color="accent"></circle><svg xmlns:x="http://ns.adobe.com/Extensibility/1.0/" xmlns:i="http://ns.adobe.com/AdobeIllustrator/10.0/" xmlns:graph="http://ns.adobe.com/Graphs/1.0/" xmlns="http://www.w3.org/2000/svg" xmlns:xlink="http://www.w3.org/1999/xlink" version="1.1" x="24.72398860418764" y="24.723988604187646" viewBox="0.6966628042068141 18.200000000000003 98.6066743915864 63.499999999999986" enable-background="new 0 0 100 100" xml:space="preserve" height="115.378613486209" width="115.378613486209" class="icon-xg-0" data-fill-palette-color="quaternary" id="xg-0"><path d="M83.5 67.3v-4.5c0-1.8-1.4-3.3-3.1-3.5v-9c0-3.4-2.8-6.2-6.2-6.2l-8.3-0.7-7.3-11c-0.1-0.1-0.2-0.3-0.3-0.4-1.1-1.5-2.9-2.6-5-2.6h-6.8H22.6c-3.4 0-6.2 2.8-6.2 6.2v23.7c-1.5 0.4-2.7 1.8-2.7 3.4v4.5c0 2 1.6 3.5 3.5 3.5h5c1.1 4 4.7 6.8 9.1 6.8 4.4 0 8-2.9 9.1-6.8h5.9 10.9c1.1 4 4.7 6.8 9.1 6.8 4.4 0 8-2.9 9.1-6.8H80C82 70.9 83.5 69.2 83.5 67.3zM31.5 73c-2.7 0-4.7-2.2-4.7-4.7 0-2.6 2.2-4.7 4.7-4.7 2.7 0 4.7 2.2 4.7 4.7C36.2 70.8 34.1 73 31.5 73zM66.5 73c-2.7 0-4.7-2.2-4.7-4.7 0-2.6 2.2-4.7 4.7-4.7 2.7 0 4.8 2.2 4.8 4.7C71.2 70.8 69.1 73 66.5 73zM5.9 52.4l-5.1-8.9c-0.3-0.5 0.1-1 0.6-1h2.8V29.3c0-6.1 5-11.1 11.1-11.1H22v4.6h-6.7c-3.5 0-6.4 2.9-6.4 6.4v13.1h2.8c0.5 0 0.9 0.6 0.6 1l-5.1 8.9C6.8 52.8 6.2 52.8 5.9 52.4zM99.2 56.5c0.3 0.5-0.1 1-0.6 1h-2.8v13.1c0 6.1-5 11.1-11.1 11.1H78v-4.6h6.7c3.5 0 6.4-2.9 6.4-6.4V57.5h-2.8c-0.5 0-0.9-0.6-0.6-1l5.1-8.9c0.3-0.5 0.9-0.5 1.2 0L99.2 56.5z" fill="#000000" data-fill-palette-color="quaternary"></path></svg><g></g></g></svg></g><g id="text-0"><path d="M13.443 94.702l14.404 6.494 4.441 1.484-0.648 3.306-14.744-6.698-4.066-1.365zM4.928 92.998c0.157-0.537 0.437-0.922 0.842-1.154 0.407-0.239 0.891-0.277 1.454-0.113v0c0.595 0.173 1.027 0.485 1.296 0.935 0.271 0.444 0.323 0.95 0.157 1.52v0c-0.164 0.563-0.465 0.956-0.902 1.179-0.431 0.225-0.931 0.255-1.5 0.089v0c-0.563-0.164-0.973-0.466-1.231-0.906-0.251-0.438-0.29-0.955-0.116-1.55z" fill="#ffffff" data-fill-palette-color="primary"></path><path d="M42.894 44.351c0.84-0.642 1.717-0.995 2.629-1.061 0.913-0.065 1.744 0.237 2.495 0.905v0l0.417 0.399 7.571 8.647 3.399 3.168-1.944 2.813-10.06-11.518-0.411-0.408c-0.705-0.586-1.255-0.64-1.651-0.163v0c-0.547 0.658-0.487 2.267 0.179 4.828 0.667 2.57 1.918 5.862 3.751 9.874v0l3.184 2.937-1.912 2.774-10.853-12.02-3.16-2.903 1.853-2.718 6.743 7.446 0.252-0.303c-1.008-2.792-1.742-5.146-2.2-7.061-0.459-1.915-0.656-3.669-0.593-5.263v0z" fill="#ffffff" data-fill-palette-color="primary"></path><path d="M95.126 8.769c1.112 0.786 1.915 1.714 2.409 2.784v0c0.655 1.419 0.853 3.402 0.595 5.948v0l-1.291 13.006-3.295 1.519-10.438-17.368 2.87-1.669 1.61 3.153 6.606 11.69 0.275-0.127 0.873-9.93c0.178-1.93 0.039-3.39-0.418-4.382v0c-0.395-0.857-1.13-1.605-2.204-2.245v0l-0.104-0.441z" fill="#ffffff" data-fill-palette-color="primary"></path><path d="M148.468 0l0.353 0.001c1.616 0.276 2.826 0.958 3.631 2.046 0.804 1.095 1.202 2.66 1.194 4.695v0c-0.011 2.709-0.401 5.106-1.171 7.191-0.776 2.086-1.895 3.739-3.355 4.96-1.467 1.214-3.201 1.904-5.203 2.071v0l-0.394-0.042c-1.676-0.33-2.917-1.043-3.721-2.137-0.811-1.095-1.212-2.7-1.204-4.816v0c0.011-2.655 0.418-5.018 1.221-7.09 0.803-2.072 1.952-3.708 3.446-4.909 1.494-1.2 3.228-1.857 5.203-1.97zM147.881 2.696c-2.001-0.008-3.538 1-4.611 3.024-1.066 2.031-1.606 4.767-1.62 8.211v0c-0.006 1.536 0.195 2.649 0.604 3.337 0.408 0.696 1.101 1.045 2.077 1.05v0c1.967 0.008 3.488-1.017 4.561-3.075 1.066-2.058 1.606-4.825 1.62-8.301v0c0.006-1.496-0.195-2.578-0.604-3.247-0.408-0.662-1.084-0.995-2.027-0.999z" fill="#ffffff" data-fill-palette-color="primary"></path><path d="M202.855 13.113l-8.283 13.455-2.04 4.215-3.196-1.065 8.529-13.767 1.873-3.858zM205.633 4.885c0.512 0.224 0.858 0.551 1.038 0.983 0.185 0.434 0.161 0.92-0.074 1.457v0c-0.248 0.568-0.613 0.957-1.094 1.165-0.475 0.212-0.984 0.199-1.527-0.038v0c-0.537-0.235-0.889-0.583-1.055-1.045-0.168-0.456-0.134-0.956 0.104-1.499v0c0.235-0.537 0.587-0.905 1.056-1.105 0.467-0.193 0.984-0.166 1.552 0.082z" fill="#ffffff" data-fill-palette-color="primary"></path><path d="M246.976 46.406l1.307 2.649-0.171 0.539-2.495 1.146-0.583-0.422c0.039-0.809-0.016-1.454-0.166-1.934-0.16-0.481-0.414-0.904-0.762-1.27v0c-1.217-1.279-2.852-1.653-4.905-1.123-2.053 0.53-4.244 1.903-6.572 4.118v0c-1.323 1.259-2.124 2.304-2.402 3.135-0.278 0.841-0.113 1.582 0.495 2.222v0c1.073 1.128 3.086 1.323 6.041 0.587v0l0.305 0.379-0.322 1.715c-1.764 0.414-3.273 0.538-4.527 0.373-1.254-0.165-2.478-0.596-3.671-1.293v0l-0.369-0.388c-0.96-1.439-1.331-2.802-1.114-4.088 0.218-1.286 1.225-2.784 3.022-4.493v0c2.856-2.717 5.796-4.323 8.821-4.82 3.024-0.496 5.714 0.493 8.068 2.968z" fill="#ffffff" data-fill-palette-color="primary"></path><path d="M261.614 101.194l0.143 0.517-0.935 1.464c-1.676-0.401-3.093-0.987-4.251-1.76-1.152-0.775-2.106-1.778-2.863-3.01v0l-0.177-0.495c-0.415-1.855-0.228-3.387 0.563-4.594 0.784-1.205 2.245-2.191 4.382-2.958v0c2.435-0.874 4.765-1.263 6.991-1.167 2.223 0.09 4.135 0.62 5.737 1.591 1.604 0.978 2.753 2.344 3.447 4.1v0l0.068 0.34c0.288 1.242 0.228 2.291-0.18 3.147-0.417 0.851-1.153 1.466-2.205 1.844v0c-1.662 0.596-3.502 0.287-5.52-0.929-2.012-1.218-4.151-3.328-6.418-6.33v0c-1.75 0.628-2.943 1.314-3.578 2.058-0.642 0.746-0.788 1.604-0.44 2.574v0c0.298 0.831 0.86 1.528 1.685 2.09 0.834 0.567 2.017 1.073 3.551 1.518zM272.167 95.022c-0.508-1.414-1.626-2.366-3.355-2.855-1.725-0.498-3.783-0.457-6.174 0.122v0c1.636 2.105 3.166 3.595 4.591 4.473 1.427 0.884 2.724 1.116 3.891 0.698v0c1.135-0.407 1.484-1.22 1.047-2.438z" fill="#ffffff" data-fill-palette-color="primary"></path><path d="M13.468 137.977c0-1.842 1.493-3.336 3.336-3.336 1.842 0 3.336 1.493 3.336 3.336 0 1.842-1.493 3.336-3.336 3.336-1.842 0-3.336-1.493-3.336-3.336z" fill="#ffffff" data-fill-palette-color="primary"></path><path d="M267.914 137.977c0-1.842 1.493-3.336 3.335-3.336 1.842 0 3.336 1.493 3.336 3.336 0 1.842-1.493 3.336-3.336 3.336-1.842 0-3.336-1.493-3.335-3.336z" fill="#ffffff" data-fill-palette-color="primary"></path></g><g id="text-1"><path d="M35.119 178.049l-1.314-3.846-7.067 1.302 1.099 3.638 1.11 3.115-0.171 0.225-1.961 0.144-1.015-3.347-1.133-3.415-3.209 0.588-4.384 0.926 1.167 3.85 1.604 4.516-0.19 0.167-1.99 0.185-3.442-10.677 6.351-1.05 14.572-2.893 3.455 10.716-0.19 0.168-1.981 0.182z" fill="#ffffff" data-fill-palette-color="primary"></path><path d="M38.189 194.569l-0.062 0.351-11.205 3.35-3.247 1.309-1.258-2.192 6.547-1.941-0.138-0.303c-3.228-0.286-6.026-0.902-8.394-1.849v0l-0.194-0.423c0.168-1.915 1.392-3.394 3.672-4.437v0c1.44-0.659 2.963-1.03 4.57-1.114 1.607-0.083 3.126 0.184 4.558 0.804 1.429 0.613 2.61 1.614 3.542 3.002v0l0.067 0.148 0.156 2.185zM22.991 192.378c0.109 0.239 0.629 0.501 1.561 0.786 0.925 0.288 2.191 0.52 3.798 0.696 1.604 0.17 3.423 0.226 5.457 0.17v0l0.187-0.053 0.739-0.304-0.197-2.156c-0.421-0.919-1.105-1.58-2.053-1.983-0.942-0.406-2.03-0.542-3.265-0.407-1.238 0.129-2.506 0.491-3.805 1.086v0c-0.999 0.457-1.678 0.875-2.037 1.255-0.357 0.386-0.485 0.689-0.385 0.91z" fill="#ffffff" data-fill-palette-color="primary"></path><path d="M43.181 203.04c0.346 0.902 0.597 1.835 0.753 2.798v0l-2.278 0.577-0.318-0.268c0.375-1.233 0.327-2.234-0.144-3.005v0c-0.345-0.563-0.841-0.923-1.49-1.079-0.652-0.162-1.231-0.088-1.736 0.222v0c-0.414 0.253-0.684 0.612-0.811 1.076-0.132 0.468-0.233 1.15-0.301 2.045v0c-0.085 1.166-0.249 2.111-0.492 2.837-0.238 0.722-0.762 1.331-1.572 1.826v0c-0.747 0.457-1.556 0.672-2.426 0.644-0.874-0.034-1.714-0.31-2.521-0.828-0.803-0.512-1.491-1.236-2.064-2.173v0c-0.466-1.058-0.722-2.193-0.768-3.404v0l2.327-0.69 0.328 0.226c-0.294 0.694-0.435 1.36-0.423 2.001 0.018 0.637 0.177 1.199 0.476 1.687v0c0.39 0.638 0.919 1.037 1.586 1.198 0.663 0.155 1.257 0.072 1.78-0.247v0c0.489-0.299 0.809-0.704 0.962-1.217 0.149-0.518 0.244-1.228 0.284-2.129v0c0.078-1.138 0.231-2.057 0.458-2.757 0.224-0.706 0.721-1.294 1.491-1.765v0c0.77-0.471 1.592-0.67 2.467-0.597 0.865 0.071 1.694 0.374 2.486 0.907 0.793 0.534 1.441 1.239 1.946 2.115z" fill="#ffffff" data-fill-palette-color="primary"></path><path d="M52.935 216.174c-0.434 1.018-0.968 1.777-1.604 2.277v0c-0.991 0.779-2.37 1.302-4.14 1.57v0l-9.413 1.436c-2.649 0.403-4.717 0.482-6.204 0.236-1.482-0.249-2.637-0.901-3.466-1.955v0c-0.45-0.572-0.838-1.317-1.165-2.234v0l1.704-1.25 0.333 0.112c0.309 0.709 0.661 1.315 1.056 1.818v0c0.625 0.795 1.405 1.313 2.34 1.554 0.934 0.251 2.191 0.274 3.771 0.07v0l10.072-11.751 1.718 1.761-1.848 1.916-6.647 7.245 0.2 0.254 6.663-1.125c1.44-0.207 2.6-0.656 3.479-1.347v0c0.588-0.462 1.004-1.111 1.248-1.945v0l0.293-0.102z" fill="#ffffff" data-fill-palette-color="primary"></path><path d="M72.708 234.735c0.46 0.641 0.71 1.304 0.748 1.989 0.029 0.686-0.212 1.302-0.723 1.849v0l-0.301 0.3-6.586 5.511-2.42 2.49-2.074-1.495 8.757-7.346 0.301-0.301c0.219-0.221 0.344-0.442 0.377-0.664 0.032-0.222-0.033-0.404-0.196-0.545v0c-0.483-0.42-1.716-0.398-3.699 0.065-1.978 0.468-4.511 1.373-7.598 2.716v0l-2.099 2.153-2.067-1.489 8.772-7.333 0.309-0.294c0.451-0.519 0.501-0.931 0.15-1.235v0c-0.483-0.42-1.688-0.4-3.613 0.059-1.927 0.45-4.404 1.327-7.432 2.632v0l-2.244 2.335-2.044-1.469 9.155-7.912 2.224-2.311 1.998 1.429-5.675 4.91 0.222 0.192c2.105-0.706 3.877-1.214 5.316-1.525 1.435-0.315 2.749-0.436 3.944-0.361v0l0.275 0.239c0.46 0.641 0.707 1.302 0.74 1.983 0.029 0.686-0.21 1.304-0.716 1.855v0l-0.301 0.3-3.256 2.728 0.229 0.199c2.056-0.722 3.811-1.231 5.266-1.529 1.455-0.297 2.784-0.419 3.987-0.364v0z" fill="#ffffff" data-fill-palette-color="primary"></path><path d="M87.201 244.055l0.144 0.326-7.441 9.022-1.968 2.895-2.266-1.119 4.357-5.259-0.284-0.174c-2.841 1.56-5.508 2.607-8.002 3.139v0l-0.396-0.244c-0.927-1.684-0.734-3.594 0.579-5.73v0c0.829-1.349 1.887-2.506 3.175-3.47 1.288-0.964 2.699-1.588 4.234-1.871 1.528-0.287 3.066-0.113 4.614 0.522v0l0.137 0.084 1.347 1.729zM73.357 250.698c0.224 0.138 0.802 0.066 1.734-0.216 0.929-0.276 2.109-0.788 3.542-1.537 1.427-0.752 2.969-1.719 4.627-2.898v0l0.127-0.148 0.444-0.664-1.364-1.68c-0.861-0.529-1.798-0.697-2.81-0.505-1.008 0.187-1.988 0.681-2.938 1.481-0.956 0.797-1.808 1.804-2.556 3.021v0c-0.575 0.936-0.906 1.662-0.993 2.177-0.082 0.519-0.019 0.842 0.187 0.969z" fill="#ffffff" data-fill-palette-color="primary"></path><path d="M99.58 249.785c0.626 0.481 1.053 1.043 1.28 1.685 0.225 0.648 0.175 1.309-0.15 1.983v0l-0.201 0.375-4.716 7.176-1.608 3.078-2.408-0.829 6.284-9.552 0.211-0.37c0.282-0.627 0.211-1.035-0.213-1.227v0c-0.584-0.263-1.731 0.104-3.443 1.099-1.715 0.987-3.834 2.541-6.356 4.665v0l-1.475 2.883-2.381-0.817 6.483-10.216 1.462-2.855 2.326 0.792-4.017 6.338 0.267 0.121c1.812-1.283 3.362-2.281 4.651-2.994 1.283-0.716 2.507-1.21 3.672-1.484v0z" fill="#ffffff" data-fill-palette-color="primary"></path><path d="M116.231 255.14l0.223 0.277-4.867 10.634-1.157 3.305-2.478-0.499 2.857-6.203-0.32-0.095c-2.343 2.239-4.651 3.937-6.923 5.093v0l-0.446-0.134c-1.329-1.389-1.634-3.284-0.916-5.685v0c0.454-1.517 1.179-2.907 2.175-4.171 0.997-1.263 2.2-2.229 3.609-2.898 1.403-0.671 2.934-0.899 4.593-0.684v0l0.155 0.047 1.746 1.323zM104.564 265.123c0.252 0.075 0.792-0.143 1.62-0.655 0.826-0.505 1.835-1.304 3.027-2.397 1.185-1.094 2.427-2.425 3.725-3.992v0l0.084-0.175 0.258-0.757-1.75-1.272c-0.968-0.289-1.917-0.211-2.845 0.236-0.926 0.44-1.746 1.169-2.458 2.187-0.719 1.016-1.283 2.208-1.692 3.577v0c-0.315 1.052-0.448 1.839-0.399 2.36 0.055 0.523 0.198 0.819 0.43 0.888z" fill="#ffffff" data-fill-palette-color="primary"></path><path d="M131.11 257.559l0.289 0.249-3.332 11.074-0.635 2.408c-0.456 1.552-1.133 2.856-2.031 3.912-0.898 1.055-1.933 1.803-3.104 2.244-1.166 0.448-2.369 0.578-3.608 0.388v0c-1.392-0.213-2.486-0.79-3.283-1.73-0.791-0.932-1.205-2.148-1.241-3.646v0l0.14-0.245 5.035-2.163 0.084-0.283c-0.395-0.49-0.655-1.062-0.78-1.715-0.118-0.652-0.106-1.444 0.037-2.377v0c0.24-1.565 0.743-3.001 1.508-4.308 0.766-1.307 1.768-2.35 3.005-3.129 1.231-0.779 2.623-1.173 4.179-1.18v0l0.17 0.026 1.908 1.029zM126.623 258.947c-1.439-0.22-2.662 0.27-3.671 1.473-1.002 1.203-1.655 2.793-1.958 4.771v0c-0.163 1.066-0.182 1.877-0.056 2.435 0.127 0.551 0.287 0.841 0.48 0.871v0c0.22 0.034 0.668-0.242 1.343-0.827 0.682-0.584 1.506-1.443 2.471-2.576 0.964-1.134 1.951-2.458 2.96-3.974v0l0.125-0.41 0.186-0.749zM119.495 276.045c1.239 0.19 2.356-0.092 3.35-0.846 0.996-0.761 1.742-1.962 2.24-3.604v0l1.808-6.134-0.329-0.051c-1.961 2.481-3.88 4.259-5.756 5.335v0l-3.707 1.968c-0.226 0.143-0.354 0.31-0.383 0.504v0c-0.064 0.597 0.15 1.182 0.641 1.755 0.485 0.572 1.197 0.93 2.136 1.073z" fill="#ffffff" data-fill-palette-color="primary"></path><path d="M142.875 269.084l0.392 0.047 0.755 1.053c-0.752 1.047-1.559 1.863-2.42 2.447-0.861 0.577-1.824 0.955-2.891 1.132v0l-0.393-0.016c-1.4-0.234-2.404-0.796-3.015-1.685-0.617-0.883-0.89-2.169-0.818-3.859v0c0.082-1.939 0.468-3.662 1.159-5.171 0.691-1.515 1.601-2.691 2.729-3.526 1.128-0.829 2.396-1.237 3.805-1.225v0l0.261 0.041c0.938 0.154 1.645 0.494 2.122 1.02 0.47 0.526 0.688 1.206 0.652 2.041v0c-0.056 1.319-0.787 2.506-2.194 3.559-1.414 1.053-3.478 1.94-6.192 2.662v0c-0.059 1.387 0.081 2.404 0.417 3.053 0.337 0.655 0.888 0.999 1.656 1.031v0c0.66 0.028 1.302-0.164 1.926-0.577 0.625-0.419 1.307-1.095 2.049-2.027zM141.577 260.046c-1.124-0.047-2.1 0.454-2.926 1.505-0.827 1.058-1.377 2.494-1.649 4.31v0c1.918-0.539 3.381-1.179 4.39-1.918 1.009-0.733 1.533-1.564 1.572-2.493v0c0.038-0.895-0.425-1.363-1.387-1.404z" fill="#ffffff" data-fill-palette-color="primary"></path><path d="M165.248 256.403c0.663 0.886 1.051 1.73 1.164 2.53v0c0.176 1.248-0.064 2.704-0.72 4.369v0l-3.484 8.862c-0.981 2.493-1.951 4.321-2.91 5.484-0.959 1.156-2.103 1.828-3.431 2.016v0c-0.721 0.102-1.56 0.064-2.517-0.113v0l-0.225-2.102 0.263-0.231c0.768 0.089 1.469 0.088 2.103-0.001v0c1.001-0.141 1.84-0.556 2.519-1.244 0.686-0.682 1.337-1.758 1.953-3.226v0l-5.106-14.61 2.385-0.602 0.729 2.561 2.929 9.385 0.32-0.045 2.372-6.327c0.544-1.349 0.738-2.578 0.582-3.686v0c-0.105-0.741-0.457-1.426-1.056-2.055v0l0.059-0.305z" fill="#ffffff" data-fill-palette-color="primary"></path><path d="M175.068 254.171l0.255-0.062c1.22-0.088 2.22 0.189 3 0.832 0.782 0.649 1.352 1.714 1.712 3.193v0c0.477 1.964 0.622 3.774 0.434 5.428-0.188 1.654-0.704 3.052-1.55 4.193-0.838 1.147-1.968 1.959-3.392 2.436v0l-0.302 0.043c-1.275 0.06-2.304-0.234-3.085-0.884-0.774-0.644-1.348-1.739-1.723-3.284v0c-0.468-1.925-0.596-3.71-0.386-5.356 0.21-1.646 0.749-3.039 1.616-4.179 0.867-1.14 2.007-1.926 3.421-2.36zM175.12 256.228c-1.454 0.353-2.387 1.363-2.8 3.031-0.408 1.659-0.308 3.74 0.299 6.241v0c0.27 1.113 0.617 1.885 1.041 2.316 0.416 0.426 0.977 0.553 1.684 0.381v0c1.434-0.348 2.353-1.362 2.756-3.041 0.408-1.687 0.306-3.791-0.306-6.311v0c-0.266-1.093-0.607-1.843-1.024-2.248-0.412-0.413-0.962-0.536-1.65-0.369z" fill="#ffffff" data-fill-palette-color="primary"></path><path d="M191.435 248.9l2.205-1.082 2.591 11.511 1.114 3.318-2.262 1.104-1.658-7.272-0.218 0.082c-0.355 2.108-0.743 3.865-1.162 5.27-0.426 1.407-0.957 2.631-1.594 3.671v0l-0.341 0.129c-0.78 0.108-1.48 0.019-2.099-0.266-0.613-0.287-1.042-0.784-1.288-1.49v0l-0.112-0.412-1.746-8.448-0.98-3.336 2.21-1.041 2.275 10.961 0.186 0.664c0.092 0.318 0.23 0.532 0.416 0.643 0.183 0.104 0.376 0.117 0.577 0.041v0c0.599-0.226 1.16-1.296 1.683-3.208 0.521-1.919 0.916-4.513 1.185-7.785v0z" fill="#ffffff" data-fill-palette-color="primary"></path><path d="M205.095 241.783l0.73-0.307 1.107 3.142-0.122 0.179-0.282 0.116c-0.862 0.633-1.416 1.744-1.664 3.332-0.253 1.592-0.2 4.085 0.161 7.479v0l1.23 2.597-2.114 1.385-4.099-11.384-1.351-2.91 2.016-1.334 2.528 6.874 0.232-0.123c-0.05-1.789 0.051-3.418 0.301-4.886 0.26-1.465 0.702-2.852 1.327-4.16z" fill="#ffffff" data-fill-palette-color="primary"></path><path d="M215.813 234.566l5.409 10.486 1.914 2.93-1.911 1.638-5.521-10.766-1.744-2.69zM211.621 229.609c0.341-0.241 0.683-0.335 1.026-0.282 0.349 0.05 0.65 0.254 0.904 0.611v0c0.269 0.379 0.378 0.76 0.327 1.144-0.047 0.388-0.252 0.711-0.615 0.968v0c-0.357 0.253-0.718 0.344-1.083 0.272-0.355-0.07-0.66-0.284-0.913-0.642v0c-0.253-0.357-0.352-0.725-0.298-1.102 0.055-0.377 0.272-0.7 0.652-0.969z" fill="#ffffff" data-fill-palette-color="primary"></path><path d="M226.033 225.803c0.7-0.365 1.389-0.516 2.068-0.453 0.683 0.068 1.262 0.392 1.736 0.97v0l0.254 0.341 4.527 7.298 2.116 2.753-1.766 1.836-6.021-9.719-0.248-0.348c-0.45-0.52-0.851-0.627-1.202-0.323v0c-0.484 0.419-0.634 1.614-0.451 3.586 0.173 1.971 0.693 4.547 1.557 7.729v0l1.995 2.551-1.743 1.816-6.54-10.179-1.975-2.529 1.697-1.776 4.06 6.311 0.222-0.192c-0.402-2.183-0.655-4.009-0.76-5.479-0.11-1.465-0.043-2.783 0.199-3.955v0z" fill="#ffffff" data-fill-palette-color="primary"></path><path d="M237.509 213.664c0.994 0.216 1.816 0.617 2.467 1.203v0c0.866 0.781 1.586 2.084 2.162 3.911v0l2.936 9.316-1.814 2.011-12.279-8.855 1.485-1.995 2.027 1.692 7.985 6.086 0.149-0.165-2.326-7.079c-0.448-1.384-0.973-2.347-1.573-2.889v0c-0.525-0.474-1.249-0.773-2.172-0.897v0l-0.207-0.269z" fill="#ffffff" data-fill-palette-color="primary"></path><path d="M243.12 205.564l0.152-0.215c0.863-0.866 1.8-1.313 2.81-1.339 1.016-0.022 2.145 0.407 3.386 1.289v0c1.648 1.17 2.944 2.441 3.887 3.813 0.943 1.372 1.469 2.766 1.58 4.183 0.119 1.415-0.202 2.769-0.964 4.063v0l-0.2 0.23c-0.923 0.881-1.893 1.333-2.909 1.356-1.006 0.021-2.158-0.429-3.455-1.35v0c-1.615-1.147-2.883-2.411-3.803-3.791-0.92-1.381-1.427-2.786-1.519-4.215-0.093-1.429 0.253-2.771 1.035-4.025zM244.508 207.082c-0.866 1.22-0.908 2.594-0.127 4.125 0.78 1.52 2.219 3.026 4.318 4.515v0c0.934 0.663 1.702 1.018 2.305 1.066 0.593 0.049 1.1-0.223 1.521-0.816v0c0.854-1.203 0.883-2.571 0.087-4.103-0.798-1.542-2.254-3.063-4.369-4.565v0c-0.918-0.651-1.667-0.993-2.247-1.025-0.582-0.041-1.078 0.226-1.488 0.803z" fill="#ffffff" data-fill-palette-color="primary"></path><path d="M249.337 195.69l9.305 7.256 2.965 1.858-1.049 2.288-9.523-7.463-2.712-1.712zM243.453 192.946c0.208-0.362 0.48-0.591 0.814-0.686 0.338-0.101 0.697-0.042 1.077 0.176v0c0.403 0.232 0.662 0.532 0.775 0.902 0.12 0.372 0.069 0.751-0.152 1.136v0c-0.218 0.38-0.508 0.613-0.87 0.701-0.352 0.085-0.718 0.018-1.097-0.2v0c-0.38-0.218-0.624-0.51-0.732-0.876-0.108-0.366-0.047-0.75 0.185-1.153z" fill="#ffffff" data-fill-palette-color="primary"></path><path d="M254.153 185.493l1.488-1.649 0.411-0.022 1.494 1.416-0.139 0.516c-0.576 0.201-1.008 0.42-1.296 0.658-0.297 0.241-0.524 0.53-0.68 0.866v0c-0.555 1.198-0.366 2.441 0.568 3.727 0.937 1.28 2.493 2.425 4.67 3.433v0c1.235 0.572 2.184 0.841 2.846 0.806 0.656-0.038 1.123-0.356 1.4-0.955v0c0.49-1.058 0.071-2.51-1.256-4.358v0l0.181-0.318 1.281-0.241c0.772 1.107 1.272 2.119 1.501 3.034 0.226 0.922 0.263 1.893 0.11 2.914v0l-0.166 0.357c-0.737 1.062-1.583 1.695-2.539 1.898-0.953 0.197-2.267-0.092-3.942-0.868v0c-2.678-1.241-4.602-2.841-5.773-4.802-1.177-1.964-1.23-4.101-0.159-6.412z" fill="#ffffff" data-fill-palette-color="primary"></path><path d="M268.582 177.117l0.157-0.363 1.225-0.422c0.788 1.02 1.339 2.027 1.653 3.019 0.307 0.99 0.393 2.021 0.258 3.093v0l-0.128 0.373c-0.625 1.274-1.451 2.076-2.477 2.406-1.022 0.339-2.333 0.232-3.931-0.319v0c-1.834-0.633-3.376-1.496-4.624-2.59-1.254-1.096-2.12-2.303-2.598-3.623-0.472-1.318-0.501-2.65-0.086-3.996v0l0.114-0.239c0.416-0.854 0.944-1.435 1.585-1.741 0.638-0.3 1.352-0.314 2.142-0.041v0c1.248 0.431 2.176 1.471 2.783 3.12 0.605 1.656 0.865 3.887 0.779 6.695v0c1.312 0.453 2.327 0.61 3.045 0.473 0.724-0.135 1.211-0.566 1.461-1.292v0c0.215-0.624 0.215-1.294-0.001-2.011-0.223-0.718-0.675-1.566-1.357-2.542zM259.55 175.775c-0.367 1.064-0.165 2.142 0.606 3.235 0.777 1.095 1.997 2.033 3.659 2.813v0c0.032-1.992-0.163-3.577-0.583-4.756-0.414-1.176-1.06-1.916-1.939-2.22v0c-0.847-0.292-1.428 0.017-1.743 0.928z" fill="#ffffff" data-fill-palette-color="primary"></path></g></svg></g></svg></g></svg></g></svg></g><defs></defs></svg><rect width="279.72" height="279.72" fill="none" stroke="none" visibility="hidden"></rect></g></svg></g></svg>